<svg xmlns="http://www.w3.org/2000/svg" width="120" height="32" viewBox="0 0 120 32" fill="none">
  <!-- Rounded square background (h-8 w-8 = 32x32) -->
  <rect x="0" y="0" width="32" height="32" rx="8" fill="#4f46e5" />
  
  <!-- Package icon (h-4 w-4 = 16x16, centered in 32x32) -->
  <g transform="translate(8, 8) scale(0.67)" stroke="#ffffff" stroke-width="2" stroke-linecap="round" stroke-linejoin="round" fill="none">
    <path d="m7.5 4.27 9 5.15"/>
    <path d="M21 8a2 2 0 0 0-1-1.73l-7-4a2 2 0 0 0-2 0l-7 4A2 2 0 0 0 3 8v8a2 2 0 0 0 1 1.73l7 4a2 2 0 0 0 2 0l7-4A2 2 0 0 0 21 16Z"/>
    <path d="m3.3 7 8.7 5 8.7-5"/>
    <path d="M12 22V12"/>
  </g>
  
  <!-- "Cellar" text with gap-3 spacing (12px gap from 32px icon = 44px x position) -->
  <text x="44" y="22" 
        font-family="system-ui, -apple-system, BlinkMacSystemFont, 'Segoe UI', Roboto, sans-serif" 
        font-size="18" 
        font-weight="900" 
        letter-spacing="-0.05em"
        fill="#f1f5f9">CELLAR</text>
</svg>
