<svg version="1.0" xmlns="http://www.w3.org/2000/svg" width="100" height="100" viewBox="0 0 1254 1254"><g fill="#002eb1"><path fill="#fff" d="m100 1154 914 90L954 0 0 470Z"/><path d="M244.5.7C194.7 4.6 142.9 25.3 100.8 58c-9.9 7.7-34.1 31.6-42 41.5-12.2 15.3-24.2 34.3-31.7 50-2.4 5-4.8 9.8-5.3 10.8-4.4 8.6-16.1 45.3-15.9 50.2 0 .2-.4 1.9-.9 3.6-.5 1.8-1.7 8.9-2.7 15.8C.6 241.8.5 264 .5 626.5c0 403.3-.1 392.3 4.2 413.5.8 4.1 2.6 11.8 4 17 16.1 61.6 56.5 117.2 112.5 154.8 25.3 17 62.9 32.2 94.8 38.2 21.3 4 17.6 3.9 410.5 4 406.3 0 391.7.2 416.2-5.1 37.9-8.1 79.5-27.1 105.3-48 3-2.5 6.6-5.2 7.9-6.2 1.4-.9 8.4-7.2 15.6-14 14.6-13.9 30.3-33.1 42-51.3 16.8-26.2 30.7-60.7 35.5-87.9 4.7-26 4.4-.7 4.7-407 .4-339 .2-381.7-1.2-395.6-.8-8.5-1.7-16.6-2-18-5.2-27.3-11.8-47.4-23-70.4-28.5-58.5-79.4-106-140-130.8-16.7-6.8-43.8-14.8-55.5-16.2C1003.4-.1 1016.5 0 625.5.2c-207.3.1-378.8.3-381 .5m415 256.1c19.7 4.4 32.5 10 63.5 28.2 26.7 15.6 43.1 25.1 58.5 34 12.9 7.4 44.3 25.8 76.5 44.7 14 8.3 31.6 18.5 39 22.8s16.2 9.9 19.5 12.4c26.8 20.5 43.7 47.7 49.9 79.9 2.3 11.6 2.3 41.4 0 43.6-1.4 1.4-8.3 1.6-61.7 1.6-33.9 0-62.8-.4-66.1-1-8.9-1.4-17-5.7-29.3-15.6-8.5-6.8-21.1-14.7-54-33.8-23.5-13.8-54.3-31.7-68.3-40-14-8.2-28.9-16.2-33.1-17.7s-12-3.3-17.5-4c-8.6-1.1-11.2-1-20.1.5-17.6 2.9-10.4-.9-128.3 68.6-9.1 5.3-18.7 11-21.5 12.5-13.7 7.7-25.3 20.4-32 34.8-6.4 13.9-6.5 15.6-6.4 106.7.1 77.1.2 81.9 2 89.5 3.5 14.4 13 29.2 24.9 38.6 2.5 2 14.9 9.6 27.5 17.1 12.7 7.4 35.4 20.8 50.5 29.8 42.5 25.2 58 34.1 64.8 37.2 16.7 7.6 42.5 7.7 59.5.1 3.4-1.5 17.2-9.2 30.7-17.1 13.5-8 36-21.2 50-29.5 14-8.2 33.2-19.5 42.5-25 10.1-5.9 21.7-13.8 28.6-19.3 6.4-5.2 14.6-10.8 18.5-12.6l6.9-3.3 65.4-.3c48.1-.2 65.7 0 66.7.9 2.3 1.9 1.9 26.7-.6 37.7-6.2 27.6-17.8 49.1-37 68.3-11.9 12-17.6 16-45 31.9-10.7 6.2-30 17.6-42.8 25.2-12.9 7.6-23.6 13.8-23.9 13.8s-1.7.8-3.1 1.9c-1.5 1-8.8 5.3-16.2 9.6-16.9 9.8-22 12.8-61.5 36.1-36.1 21.3-47.1 27-60 31.4-16.3 5.4-27.7 7.1-49.2 7-10.6 0-19.8-.2-20.5-.5-.7-.2-3.1-.7-5.3-1-17.8-2.6-37-10.1-58.5-23-23.6-14.2-85-50.1-122-71.5-6.3-3.6-22.5-13.1-36-21s-26.5-15.4-29-16.8c-15.9-8.8-34.8-25.8-45.3-40.8-10.4-14.9-18.8-34.2-23.3-53.5-.5-1.9-1-66.9-1.1-144.4-.4-156.1-.7-148 6.1-168.1 8.6-25.5 22.8-45.1 46.7-64.6 2.5-2.1 14.9-9.8 27.5-17.1s42.9-25.1 67.4-39.4 48.8-28.5 54-31.5 20.3-11.8 33.5-19.5 27.2-15.8 31-18c15.7-8.9 38.1-16.4 54.5-18.4 11.7-1.4 42.5-.3 52.5 1.9m-17.3 217.9c2.4.9 22.8 12.5 45.3 25.7 22.6 13.2 46.2 27 52.5 30.6 16.2 9.4 16.7 11.7 4.2 19.3-3.1 1.9-21.2 12.6-40.2 23.9-67.9 40.3-66.1 39.4-78.2 38.6-8.8-.7-12.6-2.6-53.8-26.9-16.2-9.6-38-22.4-48.4-28.4-11.6-6.8-19.2-11.9-19.9-13.3-1.9-4 .7-6.5 17.1-15.9 8.7-5 32.2-18.7 52.4-30.6s38.6-22.3 41-23.1c6.2-2.2 22.5-2.1 28 .1M518.7 599.1c17.5 10 41.7 23.8 53.8 30.7 12.1 6.8 23.5 13.9 25.3 15.6 1.9 1.7 4.6 5.3 6 8.1l2.7 5 .3 61c.2 33.5.1 62.4-.3 64.1-.3 2-1.4 3.5-3.1 4.2-3.1 1.5-.9 2.6-44-22.1-71.6-41.1-66.8-37.9-72.6-47-6.7-10.4-6.8-11.7-6.8-75.7 0-50.5.2-57.8 1.6-59.8.8-1.2 2.4-2.2 3.4-2.2 1.1 0 16.2 8.2 33.7 18.1"/></g></svg>